<svg id="Download_on_the_App_Store_Badge_AR_RGB_wht_102417" xmlns="http://www.w3.org/2000/svg" width="178.852" height="58.575" viewBox="0 0 178.852 58.575">
  <g id="Group_20022" data-name="Group 20022" transform="translate(0 0)">
    <g id="Group_20020" data-name="Group 20020">
      <path id="Path_42060" data-name="Path 42060" d="M164.61,0H14.251c-.548,0-1.09,0-1.636,0-.458,0-.912.011-1.374.019A20.148,20.148,0,0,0,8.246.28,10.106,10.106,0,0,0,5.4,1.2,9.616,9.616,0,0,0,2.986,2.925,9.175,9.175,0,0,0,1.225,5.3,9.531,9.531,0,0,0,.29,8.086a18.652,18.652,0,0,0-.268,2.932c-.014.449-.015.9-.023,1.348V46.214c.007.455.009.9.023,1.35A18.651,18.651,0,0,0,.29,50.5a9.511,9.511,0,0,0,.934,2.789,9.1,9.1,0,0,0,1.761,2.364A9.372,9.372,0,0,0,5.4,57.374a10.16,10.16,0,0,0,2.841.924,20.515,20.515,0,0,0,3,.259c.462.01.916.016,1.374.016.547,0,1.088,0,1.636,0H164.61c.537,0,1.083,0,1.62,0,.455,0,.922-.006,1.378-.016A20.245,20.245,0,0,0,170.6,58.3a10.317,10.317,0,0,0,2.852-.924,9.618,9.618,0,0,0,4.183-4.09,9.534,9.534,0,0,0,.925-2.789,19.394,19.394,0,0,0,.277-2.932c.006-.455.006-.9.006-1.35.012-.532.012-1.061.012-1.6V13.964c0-.536,0-1.068-.012-1.6,0-.449,0-.9-.006-1.349a19.39,19.39,0,0,0-.277-2.932A9.377,9.377,0,0,0,173.449,1.2,10.261,10.261,0,0,0,170.6.28a19.888,19.888,0,0,0-2.989-.259c-.455-.007-.922-.016-1.378-.019-.537,0-1.083,0-1.62,0Z" transform="translate(0 0)" fill="#a6a6a6"/>
      <path id="Path_42061" data-name="Path 42061" d="M12.19,56.834c-.455,0-.9-.006-1.352-.016a19.361,19.361,0,0,1-2.794-.239,8.927,8.927,0,0,1-2.476-.8,8.074,8.074,0,0,1-2.088-1.487,7.8,7.8,0,0,1-1.525-2.043,8.248,8.248,0,0,1-.812-2.424,17.787,17.787,0,0,1-.249-2.743c-.009-.309-.022-1.336-.022-1.336v-33.8s.013-1.012.022-1.309A17.725,17.725,0,0,1,1.142,7.9,8.3,8.3,0,0,1,1.955,5.47,7.87,7.87,0,0,1,3.472,3.424a8.313,8.313,0,0,1,2.1-1.5,8.835,8.835,0,0,1,2.471-.8,19.207,19.207,0,0,1,2.8-.24L12.191.875h153.6l1.365.019a18.9,18.9,0,0,1,2.778.238,9.01,9.01,0,0,1,2.5.8,8.1,8.1,0,0,1,4.409,5.953,18.617,18.617,0,0,1,.26,2.761c0,.414,0,.859,0,1.3.012.549.012,1.071.012,1.6V44.165c0,.532,0,1.05-.012,1.573,0,.476,0,.912-.006,1.36a18.248,18.248,0,0,1-.255,2.712,8.272,8.272,0,0,1-.807,2.443,8.339,8.339,0,0,1-3.609,3.523,8.894,8.894,0,0,1-2.493.8,19.139,19.139,0,0,1-2.794.239c-.438.01-.9.016-1.341.016l-1.62,0Z" transform="translate(0.432 0.433)" fill="#fff"/>
    </g>
    <g id="_Group_" data-name=" Group " transform="translate(137.513 11.181)">
      <g id="_Group_2" data-name=" Group 2">
        <path id="_Path_" data-name=" Path " d="M115,23.144a7.692,7.692,0,0,1,3.663-6.453,7.873,7.873,0,0,0-6.2-3.354c-2.61-.274-5.14,1.562-6.47,1.562-1.356,0-3.4-1.535-5.609-1.489a8.261,8.261,0,0,0-6.952,4.24c-3.006,5.2-.764,12.853,2.116,17.06,1.441,2.06,3.124,4.361,5.327,4.279,2.156-.089,2.961-1.375,5.563-1.375,2.578,0,3.334,1.375,5.581,1.323,2.313-.038,3.771-2.069,5.161-4.149a17.037,17.037,0,0,0,2.36-4.807A7.433,7.433,0,0,1,115,23.144Z" transform="translate(-92.005 -5.145)"/>
        <path id="_Path_2" data-name=" Path 2" d="M106.222,13.272a7.573,7.573,0,0,0,1.732-5.425,7.705,7.705,0,0,0-4.985,2.579,7.206,7.206,0,0,0-1.778,5.224,6.371,6.371,0,0,0,5.031-2.379Z" transform="translate(-87.469 -7.847)"/>
      </g>
    </g>
    <g id="Group_20021" data-name="Group 20021" transform="translate(13.934 25.824)">
      <path id="Path_42062" data-name="Path 42062" d="M21.093,31.622H14.019l-1.7,5.017h-3l6.7-18.56h3.113l6.7,18.56H22.791Zm-6.342-2.315h5.608l-2.764-8.142h-.077Z" transform="translate(-9.323 -17.769)"/>
      <path id="Path_42063" data-name="Path 42063" d="M34.274,28.257c0,4.205-2.251,6.907-5.647,6.907A4.587,4.587,0,0,1,24.369,32.8H24.3v6.7H21.527V21.49h2.689v2.251h.051a4.8,4.8,0,0,1,4.309-2.392C32.01,21.349,34.274,24.063,34.274,28.257Zm-2.855,0c0-2.74-1.416-4.541-3.576-4.541-2.122,0-3.55,1.839-3.55,4.541,0,2.727,1.427,4.552,3.55,4.552,2.16,0,3.576-1.788,3.576-4.552Z" transform="translate(-3.287 -16.152)"/>
      <path id="Path_42064" data-name="Path 42064" d="M44.239,28.257c0,4.205-2.251,6.907-5.648,6.907A4.587,4.587,0,0,1,34.334,32.8H34.27v6.7H31.492V21.49h2.689v2.251h.051a4.8,4.8,0,0,1,4.309-2.392C41.975,21.349,44.239,24.063,44.239,28.257Zm-2.856,0c0-2.74-1.416-4.541-3.576-4.541-2.122,0-3.55,1.839-3.55,4.541,0,2.727,1.427,4.552,3.55,4.552,2.16,0,3.576-1.788,3.576-4.552Z" transform="translate(1.642 -16.152)"/>
      <path id="Path_42065" data-name="Path 42065" d="M47.547,31.569c.206,1.841,1.994,3.049,4.437,3.049,2.341,0,4.026-1.209,4.026-2.868,0-1.441-1.016-2.3-3.421-2.894l-2.405-.579c-3.408-.823-4.99-2.417-4.99-5,0-3.2,2.791-5.4,6.752-5.4,3.923,0,6.612,2.2,6.7,5.4h-2.8c-.168-1.852-1.7-2.97-3.937-2.97s-3.769,1.131-3.769,2.778c0,1.312.978,2.084,3.37,2.675l2.045.5c3.808.9,5.389,2.43,5.389,5.145,0,3.472-2.764,5.647-7.164,5.647-4.116,0-6.9-2.124-7.075-5.481Z" transform="translate(8.177 -17.871)"/>
      <path id="Path_42066" data-name="Path 42066" d="M59.817,19.3v3.2H62.39v2.2H59.817v7.46c0,1.159.515,1.7,1.646,1.7a8.681,8.681,0,0,0,.914-.064v2.186a7.628,7.628,0,0,1-1.543.128c-2.74,0-3.808-1.029-3.808-3.653V24.7H55.059V22.5h1.968V19.3Z" transform="translate(13.299 -17.164)"/>
      <path id="Path_42067" data-name="Path 42067" d="M60.96,28.264c0-4.258,2.508-6.933,6.418-6.933S73.8,24.006,73.8,28.264,71.315,35.2,67.378,35.2,60.96,32.533,60.96,28.264Zm10.007,0c0-2.921-1.338-4.644-3.589-4.644s-3.589,1.737-3.589,4.644c0,2.932,1.338,4.643,3.589,4.643s3.589-1.711,3.589-4.643Z" transform="translate(16.218 -16.16)"/>
      <path id="Path_42068" data-name="Path 42068" d="M71.081,21.49h2.649v2.3h.064a3.227,3.227,0,0,1,3.255-2.445,4.284,4.284,0,0,1,.952.1v2.6a3.883,3.883,0,0,0-1.248-.168A2.8,2.8,0,0,0,73.859,27v8.026H71.081Z" transform="translate(21.224 -16.152)"/>
      <path id="Path_42069" data-name="Path 42069" d="M88.319,31.055c-.374,2.456-2.766,4.142-5.827,4.142-3.937,0-6.38-2.637-6.38-6.869s2.456-7,6.263-7c3.744,0,6.1,2.572,6.1,6.675v.952H78.917v.168a3.524,3.524,0,0,0,3.64,3.833,3.061,3.061,0,0,0,3.125-1.9Zm-9.39-4.039h6.765a3.254,3.254,0,0,0-3.068-3.43q-.125-.007-.251,0a3.426,3.426,0,0,0-3.446,3.405v.029Z" transform="translate(23.712 -16.16)"/>
    </g>
  </g>
  <g id="Group_20023" data-name="Group 20023" transform="translate(75.518 12.666)">
    <path id="Path_42070" data-name="Path 42070" d="M55.41,19.531h-.976c-1.9,0-3.907-.39-3.907-3.021a14.663,14.663,0,0,1,.807-3.464l1.263.339-.182.586a11.85,11.85,0,0,0-.534,2.539c0,1.81,1.732,1.81,2.9,1.81h.82c.586,0,1.393-.234,1.393-.976V12.2h1.394v3.855a2.3,2.3,0,0,0,.95.182h.482v1.2h-.482a3.383,3.383,0,0,1-.95-.143v.182C58.393,18.15,57.871,19.531,55.41,19.531Zm-.794-8.738a.841.841,0,1,1,.885-.847.826.826,0,0,1-.8.848q-.041,0-.082,0Z" transform="translate(-50.527 -8.488)"/>
    <path id="Path_42071" data-name="Path 42071" d="M58.4,15.478a6.008,6.008,0,0,1-.222-1.758A2.784,2.784,0,0,1,61,10.647c1.849,0,2.566,1.511,2.566,3.308,0,1.328-.469,3.125-2.279,3.125a6.854,6.854,0,0,1-1.745-.4H56.588v-1.2Zm1.406.053a4.21,4.21,0,0,0,1.393.325c.807,0,1.029-1.029,1.029-1.941,0-.872-.247-2.122-1.3-2.122-.95,0-1.367.885-1.367,2.005a5.109,5.109,0,0,0,.247,1.732Z" transform="translate(-47.529 -7.729)"/>
    <path id="Path_42072" data-name="Path 42072" d="M69.024,19.682h-.976c-1.9,0-3.907-.39-3.907-3.021a14.7,14.7,0,0,1,.807-3.464l1.264.339-.182.586a11.845,11.845,0,0,0-.534,2.539c0,1.81,1.733,1.81,2.9,1.81h.82c.585,0,1.392-.234,1.392-.976V8.808h1.394v7.4a2.3,2.3,0,0,0,.95.182h.482v1.2h-.482a3.391,3.391,0,0,1-.95-.143v.182C72.006,18.3,71.485,19.682,69.024,19.682Z" transform="translate(-43.793 -8.639)"/>
    <path id="Path_42073" data-name="Path 42073" d="M75.125,10.69V14.35c0,1.549-.925,2.3-2.762,2.3H70.2v-1.2h2.111c1.106,0,1.406-.482,1.406-1.3V10.69Zm-3.49,8.881a.841.841,0,1,1,.886-.847.826.826,0,0,1-.886.847Zm2.188,0a.841.841,0,1,1,.884-.847.826.826,0,0,1-.8.848q-.041,0-.081,0Z" transform="translate(-40.795 -7.708)"/>
    <path id="Path_42074" data-name="Path 42074" d="M74.3,19.345a5.213,5.213,0,0,0,.6.039c1.147,0,1.719-.664,1.719-2.005V12.143h1.407v4.05h1.289v1.2h-1.3a3.513,3.513,0,0,1-.9,2.409,3.311,3.311,0,0,1-2.265.768,7.746,7.746,0,0,1-.886-.065Zm2.956-8.465a.841.841,0,1,1,.886-.847.826.826,0,0,1-.886.847Z" transform="translate(-38.934 -8.445)"/>
    <path id="Path_42075" data-name="Path 42075" d="M82.245,17.641a3.51,3.51,0,0,1-1.6-.443,3.888,3.888,0,0,1-2.2.443H77.387v-1.2h1.134c1.067,0,1.276-.169,1.276-.95V11.678h1.394v4.531a2.374,2.374,0,0,0,1.054.234h.873v1.2Zm-1.81-7.267a.841.841,0,1,1,.886-.847.826.826,0,0,1-.886.847Z" transform="translate(-37.241 -8.695)"/>
    <path id="Path_42076" data-name="Path 42076" d="M84.632,11.678v3.659c0,1.549-.924,2.3-2.76,2.3h-.809v-1.2h.756c1.106,0,1.406-.482,1.406-1.3V11.678Zm-2.071-1.3a.841.841,0,1,1,.886-.847.826.826,0,0,1-.886.847Zm2.188,0a.841.841,0,1,1,.886-.847.826.826,0,0,1-.886.847Z" transform="translate(-35.423 -8.695)"/>
  </g>
</svg>
