<svg xmlns="http://www.w3.org/2000/svg" xmlns:xlink="http://www.w3.org/1999/xlink" width="62.88" height="68.219" viewBox="0 0 62.88 68.219">
  <defs>
    <linearGradient id="linear-gradient" x1="0.5" x2="0.5" y2="1" gradientUnits="objectBoundingBox">
      <stop offset="0" stop-color="#aeaeae"/>
      <stop offset="1" stop-color="#101f2f"/>
    </linearGradient>
    <filter id="Star" x="0" y="0" width="62.88" height="68.219" filterUnits="userSpaceOnUse">
      <feOffset dy="3" input="SourceAlpha"/>
      <feGaussianBlur stdDeviation="3" result="blur"/>
      <feFlood flood-color="#093143"/>
      <feComposite operator="in" in2="blur"/>
      <feComposite in="SourceGraphic"/>
    </filter>
  </defs>
  <g id="Group_39193" data-name="Group 39193" transform="translate(909 7208)">
    <g transform="matrix(1, 0, 0, 1, -909, -7208)" filter="url(#Star)" style="isolation: isolate">
      <path id="Star-2" data-name="Star" d="M13.914,6.318,5.285,11.276a5.192,5.192,0,0,0-2.6,4.505l.02,9.952-.02,9.952a5.192,5.192,0,0,0,2.6,4.505l8.629,4.958,8.609,4.994a5.184,5.184,0,0,0,5.2,0l8.609-4.994,8.629-4.958a5.192,5.192,0,0,0,2.6-4.505l-.02-9.952.02-9.952a5.192,5.192,0,0,0-2.6-4.505L36.334,6.318,27.725,1.324a5.184,5.184,0,0,0-5.2,0Z" transform="translate(6.32 5.38)" fill="url(#linear-gradient)"/>
    </g>
    <g id="Group_31250" transform="translate(-887.787 -7190.66)">
      <g id="Group_31251">
        <path id="Path_148" d="M192.863,211.262v-4.155a.511.511,0,0,0-.187-.424,9.806,9.806,0,0,1-3.459-6.41,10,10,0,1,1,16.5,6.317.777.777,0,0,0-.3.661c.008,2.688,0,5.367.008,8.055a1.356,1.356,0,0,1-2.2,1.2c-1.28-.856-2.578-1.687-3.858-2.544a.339.339,0,0,0-.458,0c-1.28.848-2.578,1.687-3.858,2.544a1.359,1.359,0,0,1-2.2-1.2c.008-1.348,0-2.7,0-4.044m6.291-3.858a8.335,8.335,0,1,0-8.326-8.343h0a8.354,8.354,0,0,0,8.326,8.335m4.6,7.436v-6.537c0-.339,0-.339-.314-.2a9.82,9.82,0,0,1-8.589-.017c-.3-.136-.3-.144-.3.2v6.537c.136-.085.22-.136.314-.2l3.476-2.281a1.348,1.348,0,0,1,1.628,0c.263.178.534.348.805.526l2.993,1.959" transform="translate(-189.146 -189.086)" fill="#fbf4f4"/>
        <path id="Path_151" d="M202.321,204.522a1.222,1.222,0,0,1-.644-.17c-.458-.246-.933-.475-1.391-.729a.452.452,0,0,0-.483,0c-.458.263-.941.5-1.416.746a1.317,1.317,0,0,1-1.781-.509,1.276,1.276,0,0,1-.136-.9c.1-.543.178-1.085.28-1.628a.312.312,0,0,0-.11-.331c-.39-.373-.78-.755-1.17-1.136a1.277,1.277,0,0,1-.382-1.374,1.233,1.233,0,0,1,1.068-.9c.5-.076.992-.153,1.492-.212a.567.567,0,0,0,.526-.365c.187-.449.424-.873.636-1.306a1.31,1.31,0,0,1,1.721-.721,1.347,1.347,0,0,1,.721.712c.229.466.466.933.687,1.407a.368.368,0,0,0,.322.237c.568.076,1.128.161,1.7.254a1.3,1.3,0,0,1,.7,2.221c-.4.4-.805.789-1.212,1.179a.352.352,0,0,0-.119.356c.11.56.2,1.128.288,1.687a1.3,1.3,0,0,1-1.094,1.484,1.651,1.651,0,0,1-.212.017m-2.264-7.521c-.22.449-.432.831-.6,1.229a1.073,1.073,0,0,1-.975.7c-.424.042-.848.119-1.246.187.339.356.653.7.984,1.043a.948.948,0,0,1,.3.924c-.1.475-.161.95-.246,1.458.449-.237.873-.441,1.289-.678a.958.958,0,0,1,1.017,0c.415.229.839.441,1.289.678-.076-.424-.119-.822-.212-1.2a1.219,1.219,0,0,1,.441-1.365,11.418,11.418,0,0,0,.839-.856c-.458-.068-.89-.144-1.314-.187a1.036,1.036,0,0,1-.924-.636c-.187-.415-.4-.814-.627-1.28" transform="translate(-190.04 -189.969)" fill="#fbf4f4"/>
      </g>
    </g>
  </g>
</svg>
