<svg id="Download_on_the_Play_Store_Badge_AR_IOS" data-name="Download_on_the_Play_Store_Badge_AR IOS" xmlns="http://www.w3.org/2000/svg" xmlns:xlink="http://www.w3.org/1999/xlink" width="178.852" height="58.575" viewBox="0 0 178.852 58.575">
  <defs>
    <linearGradient id="linear-gradient" x1="0.915" y1="6.614" x2="-0.383" y2="5.945" gradientUnits="objectBoundingBox">
      <stop offset="0" stop-color="#00a0ff"/>
      <stop offset="0.007" stop-color="#00a1ff"/>
      <stop offset="0.26" stop-color="#00beff"/>
      <stop offset="0.512" stop-color="#00d2ff"/>
      <stop offset="0.76" stop-color="#00dfff"/>
      <stop offset="1" stop-color="#00e3ff"/>
    </linearGradient>
    <linearGradient id="linear-gradient-2" x1="1.076" y1="17.098" x2="-1.305" y2="17.098" gradientUnits="objectBoundingBox">
      <stop offset="0" stop-color="#ffe000"/>
      <stop offset="0.409" stop-color="#ffbd00"/>
      <stop offset="0.775" stop-color="orange"/>
      <stop offset="1" stop-color="#ff9c00"/>
    </linearGradient>
    <linearGradient id="linear-gradient-3" x1="0.862" y1="10.863" x2="-0.501" y2="9.093" gradientUnits="objectBoundingBox">
      <stop offset="0" stop-color="#ff3a44"/>
      <stop offset="1" stop-color="#c31162"/>
    </linearGradient>
    <linearGradient id="linear-gradient-4" x1="-0.188" y1="13.583" x2="0.421" y2="12.793" gradientUnits="objectBoundingBox">
      <stop offset="0" stop-color="#32a071"/>
      <stop offset="0.068" stop-color="#2da771"/>
      <stop offset="0.476" stop-color="#15cf74"/>
      <stop offset="0.801" stop-color="#06e775"/>
      <stop offset="1" stop-color="#00f076"/>
    </linearGradient>
  </defs>
  <g id="Group_20040" data-name="Group 20040" transform="translate(0 0)">
    <rect id="Rectangle_21131" data-name="Rectangle 21131" width="178.852" height="57.896" rx="5" transform="translate(0 0.506)" fill="#fff"/>
    <g id="Group_20037" data-name="Group 20037">
      <g id="Group_20036" data-name="Group 20036">
        <path id="Path_42129" data-name="Path 42129" d="M182.228,11.172c3.068,0,5.564,2.759,5.564,6.15V61.253c0,3.392-2.5,6.15-5.564,6.15H16.624c-3.068,0-5.564-2.759-5.564-6.15V17.322c0-3.392,2.5-6.15,5.564-6.15h165.6m0-1.172H16.624C12.981,10,10,13.295,10,17.322V61.253c0,4.027,2.981,7.322,6.624,7.322h165.6c3.643,0,6.624-3.295,6.624-7.322V17.322c0-4.027-2.981-7.322-6.624-7.322Z" transform="translate(-10 -10)" fill="#a6a6a6"/>
      </g>
    </g>
    <path id="Path_42130" data-name="Path 42130" d="M86.836,33.263a5.619,5.619,0,1,0,5.64,5.619A5.538,5.538,0,0,0,86.836,33.263Zm0,9.023a3.414,3.414,0,1,1,3.171-3.4A3.251,3.251,0,0,1,86.836,42.286Zm-12.3-9.023a5.619,5.619,0,1,0,5.64,5.619A5.538,5.538,0,0,0,74.533,33.263Zm0,9.023a3.414,3.414,0,1,1,3.171-3.4A3.251,3.251,0,0,1,74.533,42.286ZM59.9,34.987V37.37h5.7a4.975,4.975,0,0,1-1.3,3A5.84,5.84,0,0,1,59.9,42.116a6.343,6.343,0,0,1,0-12.684,6.077,6.077,0,0,1,4.3,1.7l1.682-1.682A8.317,8.317,0,0,0,59.9,27.047a8.728,8.728,0,1,0,0,17.453,7.974,7.974,0,0,0,6.086-2.448,7.877,7.877,0,0,0,2.065-5.576,7.7,7.7,0,0,0-.128-1.489Zm59.857,1.851a5.222,5.222,0,0,0-4.81-3.575,5.339,5.339,0,0,0-5.3,5.619,5.5,5.5,0,0,0,5.576,5.619,5.588,5.588,0,0,0,4.682-2.49l-1.916-1.278a3.21,3.21,0,0,1-2.766,1.554,2.86,2.86,0,0,1-2.725-1.7l7.513-3.109Zm-7.663,1.873a3.083,3.083,0,0,1,2.937-3.278,2.174,2.174,0,0,1,2.086,1.192Zm-6.108,5.448h2.468V27.643h-2.468Zm-4.045-9.642h-.085A3.894,3.894,0,0,0,98.9,33.263a5.624,5.624,0,0,0,0,11.237,3.828,3.828,0,0,0,2.958-1.278h.085v.81c0,2.149-1.148,3.3-3,3.3a3.11,3.11,0,0,1-2.831-2l-2.149.894a5.354,5.354,0,0,0,4.981,3.32c2.895,0,5.343-1.7,5.343-5.853V33.6h-2.342Zm-2.83,7.768a3.417,3.417,0,0,1,0-6.81,3.166,3.166,0,0,1,3,3.427A3.139,3.139,0,0,1,99.108,42.286Zm32.21-14.642h-5.907V44.159h2.464V37.9h3.443a5.137,5.137,0,1,0,0-10.259Zm.063,7.96h-3.506V29.943h3.506a2.831,2.831,0,1,1,0,5.661Zm15.235-2.371a4.631,4.631,0,0,0-4.4,2.527l2.189.914a2.335,2.335,0,0,1,2.253-1.211,2.373,2.373,0,0,1,2.592,2.126v.169a5.453,5.453,0,0,0-2.571-.637c-2.358,0-4.76,1.3-4.76,3.718a3.816,3.816,0,0,0,4.1,3.634,3.478,3.478,0,0,0,3.146-1.616h.085v1.275h2.379V37.8C151.631,34.868,149.443,33.232,146.617,33.232Zm-.3,9.051c-.809,0-1.934-.4-1.934-1.4,0-1.275,1.4-1.764,2.613-1.764a4.4,4.4,0,0,1,2.253.552A2.988,2.988,0,0,1,146.32,42.284Zm13.98-8.69-2.826,7.16h-.085l-2.933-7.16H151.8L156.2,43.6l-2.508,5.567h2.571l6.779-15.575ZM138.1,44.159h2.465V27.644H138.1Z" transform="translate(3.179 1.205)"/>
    <g id="Group_20039" data-name="Group 20039" transform="translate(13.176 12.299)">
      <path id="Path_42131" data-name="Path 42131" d="M20.583,17.561a2.651,2.651,0,0,0-.61,1.856V48.636a2.649,2.649,0,0,0,.61,1.856l.1.1L37.049,34.219v-.386L20.681,17.465Z" transform="translate(-19.973 -17.036)" fill="url(#linear-gradient)"/>
      <path id="Path_42132" data-name="Path 42132" d="M38.354,37.026,32.9,31.567v-.386l5.458-5.458.123.071,6.464,3.673c1.846,1.049,1.846,2.765,0,3.814l-6.464,3.673Z" transform="translate(-15.822 -14.384)" fill="url(#linear-gradient-2)"/>
      <path id="Path_42133" data-name="Path 42133" d="M42.481,35.581,36.9,30,20.435,46.466a2.15,2.15,0,0,0,2.747.081l19.3-10.965" transform="translate(-19.825 -13.011)" fill="url(#linear-gradient-3)"/>
      <path id="Path_42134" data-name="Path 42134" d="M42.481,28.55l-19.3-10.965a2.15,2.15,0,0,0-2.747.081L36.9,34.131Z" transform="translate(-19.825 -17.14)" fill="url(#linear-gradient-4)"/>
      <g id="Group_20038" data-name="Group 20038" transform="translate(0 22.448)">
        <path id="Path_42135" data-name="Path 42135" d="M42.358,34.132l-19.176,10.9a2.2,2.2,0,0,1-2.648.015h0l-.1.1h0l.1.1h0a2.2,2.2,0,0,0,2.648-.015l19.3-10.965Z" transform="translate(-19.825 -34.132)" opacity="0.2" style="isolation: isolate"/>
        <path id="Path_42136" data-name="Path 42136" d="M20.583,42.769a2.649,2.649,0,0,1-.61-1.856v.194a2.646,2.646,0,0,0,.61,1.855l.1-.1Z" transform="translate(-19.973 -31.954)" opacity="0.12" style="isolation: isolate"/>
      </g>
      <path id="Path_42137" data-name="Path 42137" d="M43.616,31.716l-6.587,3.743.123.123,6.464-3.673A2.319,2.319,0,0,0,45,30h0A2.458,2.458,0,0,1,43.616,31.716Z" transform="translate(-14.496 -13.011)" opacity="0.12" style="isolation: isolate"/>
      <path id="Path_42138" data-name="Path 42138" d="M23.33,17.778,49.093,32.416a2.458,2.458,0,0,1,1.385,1.715h0a2.315,2.315,0,0,0-1.385-1.908L23.33,17.585c-1.847-1.049-3.357-.177-3.357,1.937v.194C19.973,17.6,21.483,16.729,23.33,17.778Z" transform="translate(-19.973 -17.14)" fill="#fff" opacity="0.25" style="isolation: isolate"/>
    </g>
  </g>
  <g id="Group_20041" data-name="Group 20041" transform="translate(90.41 5.611)">
    <path id="Path_42139" data-name="Path 42139" d="M81.067,26.664a2.577,2.577,0,0,1-1.938-.713,2.767,2.767,0,0,1-.695-2.017,5.4,5.4,0,0,1,.054-.793c.034-.247.112-.61.229-1.089l.534.128a4.345,4.345,0,0,0-.164,1.036,2.4,2.4,0,0,0,.532,1.657,1.892,1.892,0,0,0,1.482.593,4.848,4.848,0,0,0,2.151-.526,2.907,2.907,0,0,0,1.433-1.291,8.885,8.885,0,0,1-.951-2.774,1.168,1.168,0,0,1,.213-.682,2.363,2.363,0,0,1,.739-.617q.063.511.333,1.88l.008.057a2.342,2.342,0,0,0,1.058.242.106.106,0,0,1,.119.12v.865a.106.106,0,0,1-.119.122,2.085,2.085,0,0,1-.88-.178l.02.419a2.956,2.956,0,0,1-.567,1.711A4.278,4.278,0,0,1,83.1,26.146,4.338,4.338,0,0,1,81.067,26.664Zm1.157-7.94a7.38,7.38,0,0,1-.937,1.065,8.936,8.936,0,0,1-1.044-.945c.5-.5.834-.851,1.015-1.064A12.026,12.026,0,0,0,82.224,18.724Z" transform="translate(-78.434 -13.112)" stroke="#000" stroke-miterlimit="10" stroke-width="0.2"/>
    <path id="Path_42140" data-name="Path 42140" d="M84.305,22.828a.107.107,0,0,1-.12-.122v-.865a.106.106,0,0,1,.12-.12,1.583,1.583,0,0,0,.933-.267,2.132,2.132,0,0,0,.657-.812l.292-.581a5.456,5.456,0,0,1,1.1-1.682,1.713,1.713,0,0,1,1.176-.49,1.146,1.146,0,0,1,.847.518,4.029,4.029,0,0,1,.682,1.334,5.185,5.185,0,0,1,.259,1.575,1.975,1.975,0,0,1-.164.812,1.951,1.951,0,0,1-.573.7,7.84,7.84,0,0,1-1.856-.242,6.228,6.228,0,0,1-1.643-.625,1.929,1.929,0,0,1-1.7.867Zm4.883-1.107A5.35,5.35,0,0,0,88.847,20c-.207-.548-.415-.823-.617-.823a.905.905,0,0,0-.519.164,1.968,1.968,0,0,0-.482.5,10.208,10.208,0,0,0-.653,1.149A6.977,6.977,0,0,0,89.188,21.721Z" transform="translate(-76.587 -13.078)" stroke="#000" stroke-miterlimit="10" stroke-width="0.2"/>
    <path id="Path_42141" data-name="Path 42141" d="M95.527,22.568a9.826,9.826,0,0,1-1.091-.139,4.479,4.479,0,0,1-.622-.192,5.075,5.075,0,0,1-.663-.316,2.357,2.357,0,0,1-.514-.369.5.5,0,0,1-.174-.326,2.094,2.094,0,0,1,.2-.661,6.658,6.658,0,0,1,.322-.688,3.241,3.241,0,0,1,.962-.933,7.57,7.57,0,0,1,1.572-.863l-.05-.4a5.679,5.679,0,0,1,1.057-.76l.136,4.718a2.944,2.944,0,0,0,1.51.384.106.106,0,0,1,.122.12v.865a.107.107,0,0,1-.122.122,2.74,2.74,0,0,1-1.425-.33,1.255,1.255,0,0,1-.63-.934l-.052-.3Zm-2.356-2.016a3.014,3.014,0,0,0,1.293.661,7.55,7.55,0,0,0,1.567.177l-.375-2.341-.008-.029A5.249,5.249,0,0,0,93.171,20.552Z" transform="translate(-73.929 -13.386)" stroke="#000" stroke-miterlimit="10" stroke-width="0.2"/>
    <path id="Path_42142" data-name="Path 42142" d="M100.745,19.123a.6.6,0,0,1,.357.114c-.176.421-.329.774-.462,1.058a4.032,4.032,0,0,1-.24.476,3.557,3.557,0,0,0,.912.432,3.319,3.319,0,0,0,.918.122.107.107,0,0,1,.122.12v.865a.108.108,0,0,1-.122.122,3.356,3.356,0,0,1-2.3-.846L99.7,21.9a2.577,2.577,0,0,1-1.053.347,8.908,8.908,0,0,1-1.778.185.108.108,0,0,1-.122-.122v-.865a.107.107,0,0,1,.122-.12,12.75,12.75,0,0,0,1.529-.078,2.045,2.045,0,0,0,.888-.263,3.863,3.863,0,0,0,.762-1.157l.256-.468A.465.465,0,0,1,100.745,19.123Zm-1.3,5.146a5.75,5.75,0,0,1-.859.993,7.717,7.717,0,0,1-.966-.888q.384-.355.937-.979Q98.688,23.53,99.447,24.269Zm2.193-.206a5.677,5.677,0,0,1-.873.986,7.1,7.1,0,0,1-.958-.886c.217-.2.53-.524.935-.979C100.831,23.278,101.129,23.57,101.64,24.063Z" transform="translate(-72.555 -12.681)" stroke="#000" stroke-miterlimit="10" stroke-width="0.2"/>
    <path id="Path_42143" data-name="Path 42143" d="M101.094,24a.107.107,0,0,1-.12-.122V23.01a.106.106,0,0,1,.12-.12,3.57,3.57,0,0,0,1.591-.377q-.192-1.534-.462-5.521l-.143-1.937a5.778,5.778,0,0,1,.982-.809q.091,1.994.148,6.265l.05,1.994a2.942,2.942,0,0,0,1.511.384c.085,0,.127.04.127.12v.865c0,.081-.042.122-.127.122a2.476,2.476,0,0,1-1.669-.519,4.04,4.04,0,0,1-.958.408A4.228,4.228,0,0,1,101.094,24Z" transform="translate(-71.196 -14.247)" stroke="#000" stroke-miterlimit="10" stroke-width="0.2"/>
    <path id="Path_42144" data-name="Path 42144" d="M103.934,22.948a.108.108,0,0,1-.122-.122v-.865a.107.107,0,0,1,.122-.12q.937,0,1.809-.044a2.122,2.122,0,0,1-.606-.624,1.529,1.529,0,0,1-.258-.844,2.928,2.928,0,0,1,.337-1.3,3.175,3.175,0,0,1,.868-1.1,1.786,1.786,0,0,1,1.115-.419,1.984,1.984,0,0,1,.964.252,6.336,6.336,0,0,1,1.071.783l-.255.461a6.8,6.8,0,0,0-.836-.276,2.712,2.712,0,0,0-.576-.057,3.879,3.879,0,0,0-1.865.532,2.2,2.2,0,0,0,.3,1.139,2.226,2.226,0,0,0,.876.827,3.18,3.18,0,0,0,1.355.354,10.2,10.2,0,0,0,1.057-.273q.505-.159,1.412-.514a.669.669,0,0,1,.2.518l-.015.149a.731.731,0,0,1-.6.617q-1.73.432-2.618.593c-.591.107-1.2.188-1.819.244S104.586,22.948,103.934,22.948Z" transform="translate(-70.285 -13.199)" stroke="#000" stroke-miterlimit="10" stroke-width="0.2"/>
    <path id="Path_42145" data-name="Path 42145" d="M118.848,24.784l-.369-2.349q-.616-3.69-.812-5.142a18.463,18.463,0,0,1-.194-1.912,1.136,1.136,0,0,1,.227-.76,1.249,1.249,0,0,1,.723-.375c.015.061.028.118.044.17s.172.569.474,1.554l-.341.3.029.227L119.1,20.8q.129.943.193,1.81l.007.029a2.242,2.242,0,0,0,1.065.248.106.106,0,0,1,.12.12v.865a.107.107,0,0,1-.12.122,2.2,2.2,0,0,1-.993-.235l.013.476a2.984,2.984,0,0,1-.56,1.717,4.2,4.2,0,0,1-1.54,1.33,4.287,4.287,0,0,1-2.021.514,2.574,2.574,0,0,1-1.937-.713,2.768,2.768,0,0,1-.7-2.017,5.4,5.4,0,0,1,.054-.793c.034-.247.112-.61.23-1.089l.532.128a4.414,4.414,0,0,0-.164,1.036,2.4,2.4,0,0,0,.532,1.657,1.892,1.892,0,0,0,1.482.593,4.649,4.649,0,0,0,1.435-.242,4.579,4.579,0,0,0,1.312-.659A2.471,2.471,0,0,0,118.848,24.784Z" transform="translate(-67.452 -14.247)" stroke="#000" stroke-miterlimit="10" stroke-width="0.2"/>
    <path id="Path_42146" data-name="Path 42146" d="M129.993,22.888a3.232,3.232,0,0,1-1.226-.248,2.878,2.878,0,0,1-1-.654,5.349,5.349,0,0,1-1.579.661,7.467,7.467,0,0,1-1.864.242,10.772,10.772,0,0,1-2.156-.227,6.343,6.343,0,0,1-1.76-.589l-.248.284a2.058,2.058,0,0,1-1.589.532.108.108,0,0,1-.122-.122V21.9a.107.107,0,0,1,.122-.12,1.952,1.952,0,0,0,1.036-.238,2.538,2.538,0,0,0,.773-.92l.227-.4a.5.5,0,0,1,.462-.255.461.461,0,0,1,.34.135q-.305.737-.433,1.007a5.251,5.251,0,0,0,.725.284q2.78-3.69,4.74-3.69a2.21,2.21,0,0,1,1.015.334,4.164,4.164,0,0,1,1.078.857,1.49,1.49,0,0,1,.474.923,2.412,2.412,0,0,1-.559,1.568,2.933,2.933,0,0,0,1.546.4c.086,0,.128.04.128.12v.865C130.121,22.847,130.079,22.888,129.993,22.888Zm-5.52-1.107a7.315,7.315,0,0,0,3.88-1.242,3.58,3.58,0,0,0-1.057-1.2,2.127,2.127,0,0,0-1.219-.429,3.018,3.018,0,0,0-1.641.671,11.6,11.6,0,0,0-2.064,1.982A11.384,11.384,0,0,0,124.474,21.781Z" transform="translate(-65.585 -13.138)" stroke="#000" stroke-miterlimit="10" stroke-width="0.2"/>
    <path id="Path_42147" data-name="Path 42147" d="M127.273,22.828a.108.108,0,0,1-.122-.122v-.865a.107.107,0,0,1,.122-.12,12.079,12.079,0,0,0,3.357-.37l.807-.276a8.383,8.383,0,0,1,1.464-.427,6.42,6.42,0,0,1-1.123-.723,5.979,5.979,0,0,0-.952-.642,1.665,1.665,0,0,0-.75-.181,2.265,2.265,0,0,0-1.248.354l-.341.213a.766.766,0,0,1-.211-.567,1.021,1.021,0,0,1,.482-.88,2.183,2.183,0,0,1,1.27-.334,2.4,2.4,0,0,1,.933.2,5.7,5.7,0,0,1,1.1.653,10.578,10.578,0,0,0,1.292.84,4.332,4.332,0,0,0,1.078.4,7.879,7.879,0,0,0,1.589.12l-.554,1.071c-.3-.038-.573-.063-.816-.078l-.049-.008-.3.008a3.089,3.089,0,0,0-.96.149,11.044,11.044,0,0,0-1.423.645,8.045,8.045,0,0,1-1.963.749A13.871,13.871,0,0,1,127.273,22.828Z" transform="translate(-62.79 -13.078)" stroke="#000" stroke-miterlimit="10" stroke-width="0.2"/>
    <path id="Path_42148" data-name="Path 42148" d="M135.539,19.156v.909q0,1.405-.1,3.81l-.667.122q-.093-5.095-.4-8.459l-.007-.185a1.1,1.1,0,0,1,.23-.733,1.23,1.23,0,0,1,.728-.373c.013.061.028.118.042.17s.173.569.476,1.554l-.391.333.007.071C135.512,17.415,135.539,18.344,135.539,19.156Z" transform="translate(-60.472 -14.247)" stroke="#000" stroke-miterlimit="10" stroke-width="0.2"/>
  </g>
</svg>
