<svg xmlns="http://www.w3.org/2000/svg" xmlns:xlink="http://www.w3.org/1999/xlink" width="59.831" height="72.681" viewBox="0 0 59.831 72.681">
  <defs>
    <clipPath id="clip-path">
      <rect id="Rectangle_21008" data-name="Rectangle 21008" width="59.831" height="72.681" fill="none"/>
    </clipPath>
  </defs>
  <g id="Group_39422" data-name="Group 39422" clip-path="url(#clip-path)">
    <path id="Path_44219" data-name="Path 44219" d="M40.321,161.824c4.234.147,8.546.246,12.77,0,.864-.05,1.467.194,1.695,1.072l.008,9.712a2.419,2.419,0,0,0-2.158,3.365,37.281,37.281,0,0,0,2.158,3.446l0,23.344c0,.522-.35.771-.713,1.061H39.469c-.419-.316-.761-.614-.716-1.2l.089-40.087a1.392,1.392,0,0,1,1.479-.714" transform="translate(-31.404 -131.144)" fill="#fff"/>
    <path id="Path_44220" data-name="Path 44220" d="M175.147,44.733c-.845-1.436-2.315-2.72-1.475-4.525a2.353,2.353,0,0,1,3.531-.724c.885.681,1.956,3.779,2.586,3.951,1.047.286,1.484-2.262,1.457-3.028-.122-3.555-1.391-7.631-1.557-11.212-.058-1.244.073-2.259,1.376-2.735a2.212,2.212,0,0,1,2.979,1.785c.534,2.037.628,4.477,1.081,6.582.036.166.017.564.238.542V25.507a2.424,2.424,0,0,1,1.912-2.2c1.117-.125,2.629.723,2.629,1.918v9.862c.284-.057.242-.291.282-.5.459-2.362.482-5.737,1.177-7.9.88-2.747,4.953-1.513,4.214,1.377l-1.132,7.734c.4.074.232-.1.318-.312.759-1.841,1.435-6.407,4.363-5.15,2.037.875,1.069,3.091.669,4.642-1.164,4.518-2.987,9.1-4.033,13.562a23.3,23.3,0,0,0-.609,5.421c-.468-.027-.949.009-1.419,0-1.747-.032-3.5.024-5.25,0a1.9,1.9,0,0,0-1.082-2.11c-1.933-.952-2.849.536-3.459,2.11h-.851a48.245,48.245,0,0,0,.654-5.2A2.131,2.131,0,0,0,180.327,47a3.252,3.252,0,0,0-1.065,2.127l-1.277-.851c-.025-1.062.212-2.04-.569-2.908a2.437,2.437,0,0,0-2.269-.64" transform="translate(-140.547 -18.877)" fill="#ffc78f"/>
    <path id="Path_44221" data-name="Path 44221" d="M235.681,185.012c-.031,1.015.04,2.041.006,3.057-.236,7.041-.619,14.259-1.426,21.277a52.35,52.35,0,0,1-2.836,13.268h-5.25c.295-.367.745-.487.712-1.062V207.5c-.13-1.109-.834-1.021-1.706-1.061a20.669,20.669,0,0,1,.142-2.7c.418-3.591,1.9-7.175,2.908-10.642.59-2.034,2.073-6.2,2.2-8.088,1.747.024,3.5-.032,5.25,0" transform="translate(-182.494 -149.932)" fill="#fe2464"/>
    <path id="Path_44222" data-name="Path 44222" d="M151.278,297.51c3.913-.179,8.716-.179,12.629,0,.872.04,1.576-.048,1.706,1.061v14.053c.033.574-.417.694-.712,1.062H150.285c-.362-.29-.716-.54-.712-1.061V298.571c.13-1.109.834-1.021,1.706-1.061" transform="translate(-121.219 -241.005)" fill="#ffde04"/>
    <path id="Path_44223" data-name="Path 44223" d="M263.8,185.011c.738.043,1.179,0,1.6.746.18,12,.178,24.1,0,36.11l-.6.746h-6.669a52.35,52.35,0,0,0,2.836-13.269c.808-7.018,1.19-14.236,1.426-21.277.034-1.016-.037-2.042-.006-3.056.47.009.951-.027,1.419,0" transform="translate(-209.196 -149.931)" fill="#e80008"/>
    <path id="Path_44224" data-name="Path 44224" d="M124.553,136.22a2.437,2.437,0,0,1,2.269.64c.781.868.543,1.845.569,2.908.066,2.738-.049,5.49,0,8.229.427.069.228-.1.287-.344.558-2.281.533-4.741.99-7.034a3.251,3.251,0,0,1,1.065-2.127,2.131,2.131,0,0,1,3.42,1.748,48.234,48.234,0,0,1-.654,5.2,5.662,5.662,0,0,0-.245.675,13.084,13.084,0,0,0-.25,2.59c.257.018.337-.242.425-.426.4-.842.594-1.992.922-2.839.609-1.575,1.526-3.062,3.459-2.11a1.9,1.9,0,0,1,1.082,2.11c-.127,1.888-1.61,6.053-2.2,8.088-1.006,3.467-2.491,7.051-2.908,10.642H119.445c-.686-1.268-2.725-2.117-3.833-3.049a15.142,15.142,0,0,1-2.268-2.485,37.216,37.216,0,0,1-2.158-3.446,2.419,2.419,0,0,1,2.158-3.364c2.466-.072,2.744,3.789,3.83,4.329,1.45.721,1.609-2.585,1.561-3.406-.216-3.679-1.279-7.641-1.571-11.353,0-2.334,3.352-3.057,4.255-.98.788,1.813.7,5.293,1.284,7.371.054.195.018.441.291.49V137.851a2.385,2.385,0,0,1,1.561-1.632" transform="translate(-89.954 -110.364)" fill="#ffdfb3"/>
    <path id="Path_44225" data-name="Path 44225" d="M168.914,283.862a20.674,20.674,0,0,0-.142,2.7c-3.913-.179-8.716-.179-12.628,0a10.406,10.406,0,0,0-.568-2.7Z" transform="translate(-126.085 -230.053)" fill="#ffc78f"/>
    <path id="Path_44226" data-name="Path 44226" d="M223.143,185.055c-.327.846-.52,2-.922,2.839-.088.185-.168.445-.425.427a13.084,13.084,0,0,1,.25-2.59,5.594,5.594,0,0,1,.245-.675Z" transform="translate(-179.746 -149.976)" fill="#fe2464"/>
    <path id="Path_44227" data-name="Path 44227" d="M8.491,28.127C7.781,26.721,5.789,26,4.593,25A22.387,22.387,0,0,1,.33,19.331,2.357,2.357,0,0,1,4.3,16.784c.492.678,1.34,2.889,1.844,3.264,1.268.942,1.684-2.456,1.64-3.2C7.551,13.021,6.387,8.939,6.214,5.062a2.224,2.224,0,0,1,4.15-.873c.8,1.552.831,5.605,1.371,7.576.067.244-.1.393.3.328V1.522a6.113,6.113,0,0,1,.426-.709A2.3,2.3,0,0,1,15.82.649a4.825,4.825,0,0,1,.618,1.156V11.951c.287-.054.233-.3.283-.5.606-2.39.463-5.916,1.234-8.131a2.208,2.208,0,0,1,4.266.647l-1.242,8.548c.369.068.25-.069.349-.282.812-1.753,1.4-6.445,4.333-5.18A2.341,2.341,0,0,1,26.873,9.83c-.919,5.923-4.4,12.279-5.044,18.3Z" transform="translate(0 0)" fill="#ffdfb3"/>
    <path id="Path_44228" data-name="Path 44228" d="M58.131,148.377c-.085.794-.029,1.734-.142,2.554-4.225.246-8.537.147-12.77,0a5.937,5.937,0,0,0-.426-2.554Z" transform="translate(-36.302 -120.251)" fill="#ffc78f"/>
  </g>
</svg>
