<svg id="Group_39527" data-name="Group 39527" xmlns="http://www.w3.org/2000/svg" xmlns:xlink="http://www.w3.org/1999/xlink" width="69.594" height="69.575" viewBox="0 0 69.594 69.575">
  <defs>
    <radialGradient id="radial-gradient" cx="0.266" cy="1.077" r="0.991" gradientTransform="translate(-2.918 5.666) rotate(-90) scale(1 0.93)" gradientUnits="objectBoundingBox">
      <stop offset="0" stop-color="#fd5"/>
      <stop offset="0.1" stop-color="#fd5"/>
      <stop offset="0.5" stop-color="#ff543e"/>
      <stop offset="1" stop-color="#c837ab"/>
    </radialGradient>
    <radialGradient id="radial-gradient-2" cx="-0.168" cy="0.072" r="0.443" gradientTransform="matrix(0.196, 0.981, -4.042, 0.809, 15.634, -0.42)" gradientUnits="objectBoundingBox">
      <stop offset="0" stop-color="#3771c8"/>
      <stop offset="0.128" stop-color="#3771c8"/>
      <stop offset="1" stop-color="#60f" stop-opacity="0"/>
    </radialGradient>
  </defs>
  <g id="Instagram_icon" data-name="Instagram icon" transform="translate(0 0)">
    <path id="Path_43224" data-name="Path 43224" d="M34.8,0C20.278,0,16.029.015,15.2.083A17.264,17.264,0,0,0,8.345,1.807a13.891,13.891,0,0,0-4,2.927A14.933,14.933,0,0,0,.317,13.2C.081,14.824.013,15.156,0,23.467c-.005,2.77,0,6.416,0,11.307C0,49.29.015,53.534.085,54.358a17.477,17.477,0,0,0,1.659,6.723,14.659,14.659,0,0,0,9.5,7.761,24.687,24.687,0,0,0,5.053.669c.862.037,9.645.064,18.434.064s17.577-.011,18.418-.054a23.773,23.773,0,0,0,5.235-.685,14.57,14.57,0,0,0,9.5-7.777,17.191,17.191,0,0,0,1.641-6.593c.047-.6.067-10.157.067-19.7s-.021-19.087-.069-19.686A17,17,0,0,0,67.848,8.42,13.792,13.792,0,0,0,64.87,4.34,15.024,15.024,0,0,0,56.4.319C54.772.084,54.448.014,46.131,0Z" transform="translate(0.003)" fill="url(#radial-gradient)"/>
    <path id="Path_43225" data-name="Path 43225" d="M34.8,0C20.278,0,16.029.015,15.2.083A17.264,17.264,0,0,0,8.345,1.807a13.891,13.891,0,0,0-4,2.927A14.933,14.933,0,0,0,.317,13.2C.081,14.824.013,15.156,0,23.467c-.005,2.77,0,6.416,0,11.307C0,49.29.015,53.534.085,54.358a17.477,17.477,0,0,0,1.659,6.723,14.659,14.659,0,0,0,9.5,7.761,24.687,24.687,0,0,0,5.053.669c.862.037,9.645.064,18.434.064s17.577-.011,18.418-.054a23.773,23.773,0,0,0,5.235-.685,14.57,14.57,0,0,0,9.5-7.777,17.191,17.191,0,0,0,1.641-6.593c.047-.6.067-10.157.067-19.7s-.021-19.087-.069-19.686A17,17,0,0,0,67.848,8.42,13.792,13.792,0,0,0,64.87,4.34,15.024,15.024,0,0,0,56.4.319C54.772.084,54.448.014,46.131,0Z" transform="translate(0.003)" fill="url(#radial-gradient-2)"/>
    <path id="Path_43226" data-name="Path 43226" d="M43.694,18c-6.977,0-7.853.031-10.593.155a18.853,18.853,0,0,0-6.236,1.194,13.142,13.142,0,0,0-7.516,7.513A18.767,18.767,0,0,0,18.155,33.1C18.032,35.838,18,36.714,18,43.692s.031,7.85.155,10.591a18.881,18.881,0,0,0,1.194,6.236,13.147,13.147,0,0,0,7.513,7.516A18.869,18.869,0,0,0,33.1,69.228c2.74.125,3.616.155,10.592.155s7.851-.031,10.591-.155a18.881,18.881,0,0,0,6.239-1.194,13.164,13.164,0,0,0,7.513-7.516,19.043,19.043,0,0,0,1.194-6.236c.123-2.74.155-3.614.155-10.591s-.032-7.853-.155-10.593a19.035,19.035,0,0,0-1.194-6.236,13.144,13.144,0,0,0-7.515-7.514,18.912,18.912,0,0,0-6.241-1.194C51.537,18.031,50.665,18,43.686,18Zm-2.3,4.63c.684,0,1.447,0,2.3,0,6.86,0,7.673.025,10.381.148a14.224,14.224,0,0,1,4.77.885,8.513,8.513,0,0,1,4.875,4.876,14.2,14.2,0,0,1,.885,4.769c.123,2.708.15,3.522.15,10.378s-.027,7.67-.15,10.378a14.209,14.209,0,0,1-.885,4.769,8.52,8.52,0,0,1-4.875,4.873,14.172,14.172,0,0,1-4.77.885c-2.708.123-3.522.15-10.381.15s-7.673-.027-10.381-.15a14.252,14.252,0,0,1-4.771-.886,8.512,8.512,0,0,1-4.877-4.874,14.2,14.2,0,0,1-.885-4.769c-.123-2.708-.148-3.522-.148-10.383s.025-7.67.148-10.378a14.224,14.224,0,0,1,.885-4.77,8.514,8.514,0,0,1,4.877-4.877,14.193,14.193,0,0,1,4.771-.886c2.37-.107,3.289-.139,8.077-.145ZM57.407,26.9a3.082,3.082,0,1,0,3.083,3.082A3.083,3.083,0,0,0,57.407,26.9ZM43.694,30.5A13.192,13.192,0,1,0,56.885,43.692,13.194,13.194,0,0,0,43.694,30.5Zm0,4.63a8.564,8.564,0,1,1-8.564,8.564A8.564,8.564,0,0,1,43.694,35.128Z" transform="translate(-8.901 -8.901)" fill="#fff"/>
  </g>
</svg>
