<svg id="Group_52046" data-name="Group 52046" xmlns="http://www.w3.org/2000/svg" xmlns:xlink="http://www.w3.org/1999/xlink" width="14.567" height="13.758" viewBox="0 0 14.567 13.758">
  <defs>
    <clipPath id="clip-path">
      <rect id="Rectangle_21498" data-name="Rectangle 21498" width="7.723" height="12.025" fill="none"/>
    </clipPath>
    <linearGradient id="linear-gradient" x1="1" y1="0.092" x2="0" y2="1" gradientUnits="objectBoundingBox">
      <stop offset="0" stop-color="#f02c8e"/>
      <stop offset="1" stop-color="#c9023d"/>
    </linearGradient>
  </defs>
  <rect id="Rectangle_21186" data-name="Rectangle 21186" width="14.567" height="13.758" transform="translate(0 0)" fill="none"/>
  <g id="Group_51707" data-name="Group 51707" transform="translate(2.542 0.423)">
    <g id="Group_51706" data-name="Group 51706" clip-path="url(#clip-path)">
      <path id="Path_46517" data-name="Path 46517" d="M147.042,188.2c.013-.436.024-.874.023-1.313.054,0,.061.036.085.067.577.756.979,1.267.676,2.276-.248.828-.67,1.665-.909,2.492-.106.367-.026.714-.242,1.048-.458.71-1.338.444-2.05.494a2.871,2.871,0,0,0-.113-1.095,3.415,3.415,0,0,1-.379-1.086,2.7,2.7,0,0,1,.821-2.157,1.152,1.152,0,0,0,.281-1.02c-.015-.4-.066-.808-.094-1.208,0-.008,0-.016,0-.023-.019-.273-.018-.548-.047-.821a.542.542,0,0,1,.864.179c.3.97.435,2.031.732,3,.049.161.078.284.247.363a.442.442,0,0,0,.548-.127c.21-.27-.1-.339-.246-.527a.917.917,0,0,1-.2-.54" transform="translate(-140.921 -181.59)" fill="#fdd1a3"/>
      <path id="Path_46518" data-name="Path 46518" d="M71.944,330.156a2.7,2.7,0,0,0-.821,2.157c-.3-.029-.631.086-.879-.118a.545.545,0,0,1,.011-.856l.188-.1h-.575c-.129,0-.353-.237-.388-.362a.569.569,0,0,1,.353-.716c.7,0,1.407,0,2.11,0" transform="translate(-67.91 -322.821)" fill="#febc86"/>
      <path id="Path_46519" data-name="Path 46519" d="M187.86,153.2a.585.585,0,0,1,.176.138.518.518,0,0,1,.112.195l.7,2.833a.917.917,0,0,0,.2.54c.15.188.455.257.246.527a.442.442,0,0,1-.548.127c-.169-.078-.2-.2-.247-.363-.3-.965-.432-2.026-.732-3a.542.542,0,0,0-.864-.179.1.1,0,0,1-.023-.023c.008-.031.019-.073.035-.122,0,0,.023-.072.048-.135a.987.987,0,0,1,.373-.485.628.628,0,0,1,.529-.055" transform="translate(-182.723 -149.753)" fill="#febc85"/>
      <path id="Path_46520" data-name="Path 46520" d="M189.009,228.878l-.023-.023h.023c0,.008,0,.016,0,.023" transform="translate(-184.788 -223.771)" fill="#fc4755"/>
      <path id="Path_46521" data-name="Path 46521" d="M170.771,212.279c.362-1.368-.857-2.2-1.484-3.253v0h-.03q0,.326,0,.652c.054,0,.061.036.085.068.577.756.979,1.267.676,2.276-.248.828-.67,1.665-.909,2.492-.106.367-.026.714-.242,1.048-.458.71-1.338.444-2.05.494.007.165-.007.243.141.352h2.65c.061-.053.125-.089.139-.177.053-.338-.041-.791.007-1.142.278-.927.77-1.881,1.014-2.808" transform="translate(-163.114 -204.381)" fill="#febb86"/>
      <path id="Path_46522" data-name="Path 46522" d="M6.168.723a.748.748,0,0,0-.821-.7C3.794-.041,2.2.064.646.019A.767.767,0,0,0,0,.78V6.6a.922.922,0,0,0,.118.386A.753.753,0,0,0,.6,7.329a10.918,10.918,0,0,0,1.319.006c.7,0,1.407,0,2.11,0a1.152,1.152,0,0,0,.281-1.02c-.015-.4-.094-1.231-.094-1.231-.019-.273-.018-.548-.047-.821a1.064,1.064,0,0,1,.059-.281c.13-.34.516-.707.9-.54a.587.587,0,0,1,.288.333l.7,2.833c.013-.436.024-.874.023-1.313q0-.326,0-.652,0-.09,0-.181c0-1.2-.013-3.716.025-3.74" transform="translate(0 0)" fill="url(#linear-gradient)"/>
    </g>
  </g>
</svg>
