<svg id="Group_39526" data-name="Group 39526" xmlns="http://www.w3.org/2000/svg" width="56.472" height="69.576" viewBox="0 0 56.472 69.576">
  <path id="Path_43330" data-name="Path 43330" d="M643.09,67.825V78.344a27.617,27.617,0,0,1-14.565-5.9v21.26l-.043-.066c.027.421.043.851.043,1.284A19.141,19.141,0,1,1,612.418,76.01V86.376a9.072,9.072,0,1,0,6.028,8.548c0-.187,0-.375-.015-.562V53.048h10.507c.039.89.074,1.788.113,2.677a8.3,8.3,0,0,0,1.783,4.812,19.722,19.722,0,0,0,12.256,7.295Z" transform="translate(-586.618 -44.5)" fill="#ff004f"/>
  <path id="Path_43332" data-name="Path 43332" d="M636.683,52.674V63.193a27.617,27.617,0,0,1-14.566-5.9V78.555l-.043-.066c.028.421.043.851.043,1.284A19.141,19.141,0,1,1,606.01,60.859V71.225a9.072,9.072,0,1,0,6.028,8.548c0-.187,0-.374-.016-.562V37.89h10.508c.039.89.074,1.788.113,2.677a8.3,8.3,0,0,0,1.784,4.812,19.718,19.718,0,0,0,12.256,7.295Z" transform="translate(-583.824 -37.89)" fill="#00f7ef"/>
  <path id="Path_43331" data-name="Path 43331" d="M640.758,60.834V71.353a27.619,27.619,0,0,1-14.565-5.9v21.26l-.043-.066c.027.421.043.851.043,1.284a19.141,19.141,0,1,1-16.107-18.914V79.385a9.072,9.072,0,1,0,6.028,8.548c0-.187,0-.375-.015-.562V46.057h10.507c.039.89.075,1.788.113,2.677a8.3,8.3,0,0,0,1.783,4.812,19.722,19.722,0,0,0,12.256,7.295Z" transform="translate(-585.601 -41.452)" fill="#fff"/>
</svg>
